<svg width="108" height="19" viewBox="0 0 108 19" fill="none" xmlns="http://www.w3.org/2000/svg">
<path d="M10 15.27L16.18 19L14.54 11.97L20 7.24L12.81 6.63L10 0L7.19 6.63L0 7.24L5.46 11.97L3.82 19L10 15.27Z" fill="#FBBC04"/>
<path d="M32 15.27L38.18 19L36.54 11.97L42 7.24L34.81 6.63L32 0L29.19 6.63L22 7.24L27.46 11.97L25.82 19L32 15.27Z" fill="#FBBC04"/>
<path d="M54 15.27L60.18 19L58.54 11.97L64 7.24L56.81 6.63L54 0L51.19 6.63L44 7.24L49.46 11.97L47.82 19L54 15.27Z" fill="#FBBC04"/>
<path d="M76 15.27L82.18 19L80.54 11.97L86 7.24L78.81 6.63L76 0L73.19 6.63L66 7.24L71.46 11.97L69.82 19L76 15.27Z" fill="#FBBC04"/>
<path d="M98 15.27L104.18 19L102.54 11.97L108 7.24L100.81 6.63L98 0L95.19 6.63L88 7.24L93.46 11.97L91.82 19L98 15.27Z" fill="#FBBC04"/>
</svg>
